<?xml version="1.0" encoding="utf-8"?>
<!-- Generator: Adobe Illustrator 25.2.0, SVG Export Plug-In . SVG Version: 6.00 Build 0)  -->
<svg version="1.1" id="Layer_1" xmlns="http://www.w3.org/2000/svg" xmlns:xlink="http://www.w3.org/1999/xlink" x="0px" y="0px"
	 viewBox="0 0 70.9 113.4" style="enable-background:new 0 0 70.9 113.4;" xml:space="preserve">
<style type="text/css">
	.st0{opacity:0.5;clip-path:url(#SVGID_2_);}
	.st1{fill:#E6E7E8;}
	.st2{fill-rule:evenodd;clip-rule:evenodd;fill:#E6E7E8;}
	.st3{fill-rule:evenodd;clip-rule:evenodd;fill:#ED1973;}
	.st4{fill:#ED1973;}
	.st5{fill-rule:evenodd;clip-rule:evenodd;fill:#736253;}
	.st6{fill-rule:evenodd;clip-rule:evenodd;fill:#F0F4DD;}
	.st7{fill-rule:evenodd;clip-rule:evenodd;fill:#B8A787;}
	.st8{fill:#FFFFFF;stroke:#E6E7E8;stroke-width:0.8;stroke-miterlimit:10;}
	.st9{fill-rule:evenodd;clip-rule:evenodd;fill:#B8A887;}
</style>
<g>
	<g>
		<path class="st5" d="M49.5,49.3c2,2.8-2.2,6.5-3.3,9.2c5.8,5.1,12.2,16.4,13.3,27.2c1.3,12.6-3.3,15.2-14.7,16
			c-12.5,0.9-24.9,0.2-30.8-5.3c-3.7-15.1,3.8-29.7,11.4-37.9c-0.9-3.3-3.7-4.7-3.8-8.7C29.3,53.4,42.5,54.7,49.5,49.3 M36.2,92.5
			c12.8-0.3,13.3-30.6-2.4-26.7C22.7,68.6,23.8,92.8,36.2,92.5"/>
		<path class="st6" d="M33.8,65.8c15.7-3.9,15.2,26.4,2.4,26.7C23.8,92.8,22.7,68.6,33.8,65.8"/>
		<path class="st5" d="M37.6,50.3c-2.4-1-4.6-1.9-5.2-3.9c-1.5-5.3,4.1-9.4,5.7-12.6c2.6-9.5-7.9-11.2-12.8-7.3
			c-1-9.4,15.3-21.6,22.8-11.2c1.6,2.3,2.2,4.4,1.9,7.8C48.8,37.1,30.3,38.5,37.6,50.3"/>
		<path class="st7" d="M31,48.8c-1.1-0.5-2.1-1-2.5-2.1c-1.1-2.9,0.9-5.1,1.3-6.8c0.2-5.2-4.3-6.1-6-3.9c-1.2-5.1,4.5-11.7,8.6-6.1
			c0.9,1.2,1.3,2.4,1.5,4.2C34.5,41.7,26.9,42.4,31,48.8"/>
	</g>
</g>
</svg>
