<?xml version="1.0" encoding="utf-8"?>
<!-- Generator: Adobe Illustrator 25.2.0, SVG Export Plug-In . SVG Version: 6.00 Build 0)  -->
<svg version="1.1" id="Layer_1" xmlns="http://www.w3.org/2000/svg" xmlns:xlink="http://www.w3.org/1999/xlink" x="0px" y="0px"
	 viewBox="0 0 70.9 70.9" style="enable-background:new 0 0 70.9 70.9;" xml:space="preserve">
<style type="text/css">
	.st0{opacity:0.5;clip-path:url(#SVGID_2_);}
	.st1{fill:#E6E7E8;}
	.st2{fill-rule:evenodd;clip-rule:evenodd;fill:#E6E7E8;}
	.st3{fill-rule:evenodd;clip-rule:evenodd;fill:#ED1973;}
	.st4{fill:#ED1973;}
	.st5{fill-rule:evenodd;clip-rule:evenodd;fill:#736253;}
	.st6{fill-rule:evenodd;clip-rule:evenodd;fill:#F0F4DD;}
	.st7{fill-rule:evenodd;clip-rule:evenodd;fill:#B8A787;}
	.st8{fill:#FFFFFF;stroke:#E6E7E8;stroke-width:0.8;stroke-miterlimit:10;}
	.st9{fill-rule:evenodd;clip-rule:evenodd;fill:#B8A887;}
</style>
<g>
	
		<image style="overflow:visible;opacity:0.5;" width="253" height="278" xlink:href="5D69CE82.png"  transform="matrix(0.24 0 0 0.24 5.3598 2.4888)">
	</image>
	<g>
		<g>
			<path class="st8" d="M58.1,65.6H12.8c-2.5,0-4.6-2-4.6-4.6V9.8c0-2.5,2-4.6,4.6-4.6h45.4c2.5,0,4.6,2,4.6,4.6V61
				C62.7,63.6,60.6,65.6,58.1,65.6z"/>
			<g>
				<path class="st5" d="M41.9,31.8c1,1.4-1.1,3.2-1.6,4.6c2.8,2.5,6,8.1,6.6,13.4c0.6,6.2-1.6,7.5-7.3,7.9
					c-6.2,0.4-12.3,0.1-15.2-2.6c-1.8-7.5,1.9-14.6,5.6-18.7c-0.5-1.6-1.8-2.3-1.9-4.3C32,33.8,38.5,34.5,41.9,31.8 M35.4,53.1
					C41.7,53,42,38,34.2,39.9C28.8,41.3,29.3,53.3,35.4,53.1"/>
				<path class="st2" d="M34.2,39.9c7.7-1.9,7.5,13,1.2,13.2C29.3,53.3,28.8,41.3,34.2,39.9"/>
				<path class="st5" d="M36.1,32.3c-1.2-0.5-2.3-0.9-2.6-1.9c-0.8-2.6,2-4.6,2.8-6.2c1.3-4.7-3.9-5.5-6.3-3.6
					c-0.5-4.7,7.6-10.7,11.2-5.5c0.8,1.1,1.1,2.2,0.9,3.8C41.6,25.8,32.5,26.4,36.1,32.3"/>
				<path class="st9" d="M32.8,31.5c-0.5-0.3-1-0.5-1.2-1C31,29.1,32,28,32.2,27.1c0.1-2.6-2.1-3-3-2c-0.6-2.5,2.2-5.8,4.2-3
					c0.4,0.6,0.6,1.2,0.7,2.1C34.6,28,30.8,28.4,32.8,31.5"/>
			</g>
		</g>
	</g>
</g>
</svg>
