<?xml version="1.0" encoding="utf-8"?>
<!-- Generator: Adobe Illustrator 25.2.0, SVG Export Plug-In . SVG Version: 6.00 Build 0)  -->
<svg version="1.1" id="Layer_1" xmlns="http://www.w3.org/2000/svg" xmlns:xlink="http://www.w3.org/1999/xlink" x="0px" y="0px"
	 viewBox="0 0 70.9 14.2" style="enable-background:new 0 0 70.9 14.2;" xml:space="preserve">
<style type="text/css">
	.st0{opacity:0.5;clip-path:url(#SVGID_2_);}
	.st1{fill:#E6E7E8;}
	.st2{fill-rule:evenodd;clip-rule:evenodd;fill:#E6E7E8;}
	.st3{fill-rule:evenodd;clip-rule:evenodd;fill:#ED1973;}
	.st4{fill:#ED1973;}
	.st5{fill-rule:evenodd;clip-rule:evenodd;fill:#736253;}
	.st6{fill-rule:evenodd;clip-rule:evenodd;fill:#F0F4DD;}
	.st7{fill-rule:evenodd;clip-rule:evenodd;fill:#B8A787;}
	.st8{fill:#FFFFFF;stroke:#E6E7E8;stroke-width:0.8;stroke-miterlimit:10;}
	.st9{fill-rule:evenodd;clip-rule:evenodd;fill:#B8A887;}
</style>
<g>
	<g>
		<g>
			<path class="st3" d="M17.7,1.9c2.4,0,4.9,0,7.3,0c0.8,0.2,1.3,0.7,1.5,1.5c0,2.4,0,4.9,0,7.3c-0.2,0.8-0.7,1.3-1.5,1.5
				c-0.7,0-1.4,0-2.1,0c0-1.3,0-2.7,0-3.9c0.6,0,1.1,0,1.7,0c0-0.6,0-1.1,0-1.7c-0.5,0-1.1,0-1.7,0c0-0.4-0.1-1,0.2-1.1
				c0.2-0.1,0.5,0,0.7,0c0.3,0,0.5,0,0.8,0c0-0.6,0-1.1,0-1.7c-0.6,0-1.1,0-1.6,0c-0.6,0.1-1.1,0.5-1.4,0.9c-0.3,0.5-0.4,1.2-0.4,2
				c-0.4,0-0.8,0-1.3,0c0,0.6,0,1.1,0,1.7c0.4,0,0.8,0,1.3,0c0,1.3,0,2.6,0,3.9c-1.2,0-2.4,0-3.7,0c-0.8-0.2-1.3-0.7-1.5-1.5
				c0-2.4,0-4.9,0-7.3C16.4,2.6,16.9,2.1,17.7,1.9z"/>
		</g>
		<g>
			<path class="st3" d="M4.2,1.9c0.5-0.1,1.3,0,1.9,0c1.2,0,2.4,0,3.7,0c0.6,0,1.3,0,1.7,0.1c0.7,0.2,1.1,0.7,1.2,1.4
				c0.2,0.6,0.1,1.2,0.1,1.8c0,1.1,0,2.5,0,3.7c0,0.6,0.1,1.3,0,1.8c-0.2,0.8-0.8,1.3-1.4,1.5c-0.5,0.1-1.2,0.1-1.8,0.1
				c-1.3,0-2.4,0-3.7,0c-0.6,0-1.3,0.1-1.8,0c-0.6-0.1-1.2-0.6-1.4-1.3c-0.2-0.4-0.1-1.1-0.1-1.9c0-1.4,0-2.6,0-4
				c0-0.6-0.1-1.4,0.1-1.9C2.7,2.6,3.4,2,4.2,1.9z M9.8,3.1c-0.1,0.5,0,1.2,0,1.7c0.6,0,1.1,0,1.7,0c0-0.6,0-1.2,0-1.7
				C10.9,3.1,10.4,3.1,9.8,3.1z M6.5,5.6C6.1,5.9,5.7,6.4,5.7,7.1c0,0.7,0.4,1.2,0.8,1.5c1.3,0.9,3-0.2,2.8-1.8
				c-0.1-0.9-1-1.7-2-1.5C7,5.3,6.7,5.4,6.5,5.6z M3.4,6.1c0,1.2,0,2.2,0,3.4c0,0.8,0,1.4,0.6,1.6c0.4,0.2,1.2,0.1,1.9,0.1
				c1.2,0,2.4,0,3.6,0c0.6,0,1.4,0.1,1.7-0.1c0.2-0.1,0.5-0.4,0.6-0.6c0.1-0.3,0-0.7,0-1.1c0-1.2,0-2.3,0-3.4c-0.5,0-1,0-1.5,0
				c0.1,0.4,0.2,0.8,0.2,1.3C10.2,8.8,8.9,10,7.3,9.9C5.5,9.8,4.2,8,4.9,6C4.4,6,3.9,6,3.4,6.1C3.4,6,3.4,6.1,3.4,6.1z"/>
		</g>
		<g>
			<path class="st3" d="M52.1,4.1c0.4-0.1,0.8-0.2,1.1-0.4c0,0.4-0.4,0.7-0.7,1c0.3-0.1,0.6-0.1,0.9-0.3c-0.2,0.4-0.6,0.6-0.8,0.9
				c0.2,3.9-4.1,6.5-7.7,4.5c1.1,0,2-0.2,2.5-0.8c-0.8-0.1-1.3-0.6-1.6-1.2c0.2-0.1,0.6,0,0.8-0.1c-0.8-0.3-1.3-0.8-1.4-1.8
				c0.2,0.1,0.4,0.2,0.7,0.2c-0.2-0.3-0.6-0.6-0.7-1.1c-0.1-0.4,0-0.8,0.2-1.2c0.9,0.9,1.9,1.7,3.6,1.8C48.6,4,50.9,2.9,52.1,4.1z"
				/>
		</g>
		<g>
			<path class="st3" d="M39.3,6.7c0,0.3,0,0.5,0,0.8c-0.1,0.7,0,1.7-0.6,2c-0.4,0.2-1,0.2-1.7,0.3c-0.7,0-1.3,0-1.9,0
				c-1.3,0-2.9,0.1-3.5-0.5c-0.3-0.4-0.3-1.2-0.3-1.8c0-0.3,0-0.7,0-1c0.1-0.9,0.1-1.8,0.8-2.1c0.4-0.2,1-0.1,1.5-0.1
				c1.1-0.1,2.3-0.1,3.4,0c0.6,0,1.2,0,1.5,0.2C39.2,4.9,39.2,5.9,39.3,6.7z M34.5,8.3c0.6-0.4,1.3-0.8,1.9-1.2
				c-0.7-0.4-1.3-0.8-2-1.2C34.5,6.7,34.5,7.5,34.5,8.3z"/>
		</g>
		<g>
			<g>
				<g>
					<g>
						<path class="st4" d="M60.2,12.4c-0.3,0-0.6,0-0.8-0.1c-0.7-0.2-1.3-0.7-1.5-1.4c-0.2-0.4-0.2-1-0.1-1.6l0-4.3
							c0-0.1,0-0.2,0-0.4c0-0.6,0-1.2,0.1-1.6c0.3-0.8,1-1.3,1.8-1.4c0.2,0,0.5,0,0.8,0c0.2,0,0.4,0,0.6,0c0.2,0,0.3,0,0.5,0l4.3,0
							c0.4,0,0.8,0,1.2,0.1c0.7,0.2,1.1,0.8,1.3,1.5c0.1,0.4,0.1,1,0.1,1.4c0,0.1,0,0.3,0,0.4v3.7c0,0.2,0,0.3,0,0.5
							c0,0.5,0,0.9-0.1,1.3c-0.2,0.8-0.8,1.4-1.6,1.6c-0.3,0.1-0.6,0.1-1,0.1c-0.1,0-0.3,0-0.4,0c-0.2,0-0.3,0-0.5,0l-3.7,0
							c-0.2,0-0.3,0-0.5,0C60.6,12.4,60.4,12.4,60.2,12.4z M60.5,2c-0.3,0-0.6,0-0.8,0c-0.7,0.1-1.3,0.6-1.6,1.2
							c-0.1,0.4-0.1,0.9-0.1,1.5c0,0.1,0,0.3,0,0.4l0,4.3c0,0.6,0,1.1,0.1,1.5c0.2,0.6,0.7,1,1.3,1.2c0.2,0,0.4,0.1,0.7,0.1
							c0.2,0,0.4,0,0.5,0c0.2,0,0.3,0,0.5,0l3.7,0c0.2,0,0.3,0,0.5,0c0.1,0,0.3,0,0.4,0c0.3,0,0.6,0,0.9-0.1
							c0.7-0.2,1.2-0.7,1.3-1.4c0.1-0.3,0.1-0.8,0.1-1.2c0-0.2,0-0.3,0-0.5l0-3.7c0-0.1,0-0.3,0-0.4c0-0.4,0-0.9-0.1-1.3
							c-0.2-0.6-0.6-1.1-1.1-1.3c-0.3-0.1-0.7-0.1-1-0.1l-0.6,0l-3.7,0c-0.2,0-0.3,0-0.5,0C60.9,2,60.7,2,60.5,2z"/>
						<path class="st4" d="M60.2,12.5c-0.3,0-0.6,0-0.8-0.1c-0.7-0.2-1.3-0.7-1.5-1.4c-0.2-0.4-0.2-1-0.2-1.6l0-4.3
							c0-0.1,0-0.2,0-0.4c0-0.6,0-1.2,0.1-1.6c0.3-0.8,1-1.3,1.9-1.4c0.2,0,0.5,0,0.8,0c0.2,0,0.3,0,0.5,0l0.1,0c0.1,0,0.3,0,0.4,0
							l4.3,0c0.4,0,0.8,0,1.2,0.1c0.7,0.2,1.2,0.8,1.4,1.5c0.1,0.5,0.1,1,0.1,1.4l0,0c0,0.1,0,0.3,0,0.4v3.7c0,0.2,0,0.3,0,0.5
							c0,0.5,0,0.9-0.1,1.3c-0.2,0.8-0.8,1.5-1.6,1.7c-0.3,0.1-0.7,0.1-1,0.1c-0.1,0-0.3,0-0.4,0l-0.1,0c-0.1,0-0.3,0-0.4,0l-3.7,0
							c-0.2,0-0.3,0-0.5,0C60.6,12.5,60.4,12.5,60.2,12.5z M60.5,1.8c-0.3,0-0.6,0-0.8,0c-0.8,0.1-1.5,0.6-1.8,1.4
							c-0.1,0.4-0.1,1-0.1,1.5c0,0.1,0,0.3,0,0.4l0,4.3c0,0.6,0,1.2,0.1,1.6c0.2,0.7,0.8,1.2,1.5,1.3c0.2,0,0.5,0.1,0.8,0.1
							c0.2,0,0.4,0,0.5,0c0.2,0,0.3,0,0.5,0l3.7,0c0.1,0,0.3,0,0.4,0l0.1,0c0.2,0,0.3,0,0.4,0c0.3,0,0.7,0,0.9-0.1
							c0.8-0.2,1.3-0.8,1.5-1.6c0.1-0.4,0.1-0.8,0.1-1.3c0-0.2,0-0.4,0-0.5V5.2c0-0.1,0-0.3,0-0.4l0,0c0-0.4,0-0.9-0.1-1.4
							c-0.2-0.7-0.6-1.2-1.3-1.4c-0.3-0.1-0.7-0.1-1.1-0.1l-4.3,0c-0.1,0-0.3,0-0.4,0l-0.1,0C60.9,1.8,60.7,1.8,60.5,1.8z
							 M60.2,12.2c-0.3,0-0.6,0-0.8-0.1c-0.6-0.1-1.1-0.6-1.3-1.2C58,10.6,58,10,58,9.4l0-4.3c0-0.1,0-0.2,0-0.3l0,0
							c0-0.5,0-1.1,0.1-1.5C58.4,2.6,59,2.1,59.8,2c0.2,0,0.5,0,0.8,0c0.1,0,0.3,0,0.4,0l0.1,0c0.2,0,0.3,0,0.5,0l4.3,0
							c0.4,0,0.8,0,1.1,0.1c0.6,0.2,1,0.7,1.2,1.3c0.1,0.4,0.1,0.9,0.1,1.3c0,0.2,0,0.3,0,0.4l0,3.7c0,0.2,0,0.3,0,0.5
							c0,0.5,0,0.9-0.1,1.2c-0.1,0.7-0.7,1.3-1.4,1.4c-0.3,0.1-0.6,0.1-0.9,0.1c-0.1,0-0.3,0-0.4,0l-0.1,0c-0.1,0-0.2,0-0.4,0
							l-3.7,0c-0.1,0-0.3,0-0.5,0l0,0C60.6,12.2,60.4,12.2,60.2,12.2z M60.5,2.1c-0.3,0-0.6,0-0.8,0c-0.7,0.1-1.3,0.5-1.5,1.2
							c-0.1,0.4-0.1,0.9-0.1,1.4l0,0.1c0,0.1,0,0.2,0,0.3l0,4.3c0,0.6,0,1.1,0.1,1.5c0.2,0.6,0.7,1,1.3,1.1c0.2,0,0.4,0.1,0.7,0.1
							c0.2,0,0.4,0,0.5,0l0,0c0.2,0,0.3,0,0.5,0l3.7,0c0.1,0,0.2,0,0.4,0l0.1,0c0.1,0,0.3,0,0.4,0c0.3,0,0.6,0,0.9-0.1
							c0.7-0.2,1.2-0.7,1.3-1.4c0.1-0.3,0.1-0.8,0.1-1.2c0-0.2,0-0.3,0-0.5l0-3.7c0-0.1,0-0.3,0-0.4c0-0.4,0-0.9-0.1-1.3
							c-0.2-0.6-0.5-1-1.1-1.2c-0.3-0.1-0.7-0.1-1-0.1l-0.6,0l-3.7,0c-0.2,0-0.3,0-0.5,0l-0.1,0C60.8,2.1,60.7,2.1,60.5,2.1z"/>
					</g>
				</g>
			</g>
		</g>
		<g>
			<g>
				<path class="st4" d="M32.4,12.4c-0.3,0-0.6,0-0.8-0.1c-0.7-0.2-1.3-0.7-1.5-1.4c-0.2-0.4-0.2-1-0.1-1.6l0-4.3c0-0.1,0-0.2,0-0.4
					c0-0.6,0-1.2,0.1-1.6c0.3-0.8,1-1.3,1.8-1.4c0.2,0,0.5,0,0.8,0c0.2,0,0.4,0,0.6,0c0.2,0,0.3,0,0.5,0l4.3,0c0.4,0,0.8,0,1.2,0.1
					c0.7,0.2,1.1,0.8,1.3,1.5c0.1,0.4,0.1,1,0.1,1.4c0,0.1,0,0.3,0,0.4l0,3.7c0,0.2,0,0.3,0,0.5c0,0.5,0,0.9-0.1,1.3
					c-0.2,0.8-0.8,1.4-1.6,1.6c-0.3,0.1-0.6,0.1-1,0.1c-0.1,0-0.3,0-0.4,0c-0.2,0-0.3,0-0.5,0l-3.7,0c-0.2,0-0.3,0-0.5,0
					C32.7,12.4,32.6,12.4,32.4,12.4z M32.7,2c-0.3,0-0.6,0-0.8,0c-0.7,0.1-1.3,0.6-1.6,1.2c-0.1,0.4-0.1,0.9-0.1,1.5
					c0,0.1,0,0.3,0,0.4l0,4.3c0,0.6,0,1.1,0.1,1.5c0.2,0.6,0.7,1,1.3,1.2c0.2,0,0.4,0.1,0.7,0.1c0.2,0,0.4,0,0.5,0
					c0.2,0,0.3,0,0.5,0l3.7,0c0.2,0,0.3,0,0.5,0c0.1,0,0.3,0,0.4,0c0.3,0,0.6,0,0.9-0.1c0.7-0.2,1.2-0.7,1.3-1.4
					c0.1-0.3,0.1-0.8,0.1-1.2c0-0.2,0-0.3,0-0.5V5.2c0-0.1,0-0.3,0-0.4c0-0.4,0-0.9-0.1-1.3c-0.2-0.6-0.6-1.1-1.1-1.3
					c-0.3-0.1-0.7-0.1-1-0.1l-0.6,0l-3.7,0c-0.2,0-0.3,0-0.5,0C33.1,2,32.9,2,32.7,2z"/>
				<path class="st4" d="M32.4,12.5c-0.3,0-0.6,0-0.8-0.1c-0.7-0.2-1.3-0.7-1.5-1.4c-0.2-0.4-0.2-1-0.2-1.6l0-4.3c0-0.1,0-0.2,0-0.3
					l0,0c0-0.6,0-1.2,0.1-1.6c0.3-0.8,1-1.3,1.9-1.4c0.2,0,0.5,0,0.8,0c0.2,0,0.3,0,0.5,0l0.1,0c0.1,0,0.3,0,0.4,0l4.3,0
					c0.4,0,0.8,0,1.2,0.1c0.7,0.2,1.2,0.8,1.4,1.5c0.1,0.5,0.1,1,0.1,1.4l0,0c0,0.1,0,0.3,0,0.4l0,3.7c0,0.2,0,0.3,0,0.5l0,0
					c0,0.5,0,0.9-0.1,1.3c-0.2,0.8-0.8,1.5-1.6,1.7c-0.3,0.1-0.7,0.1-1,0.1c-0.1,0-0.3,0-0.4,0l-0.1,0c-0.1,0-0.3,0-0.4,0l-3.7,0
					c-0.2,0-0.3,0-0.5,0C32.7,12.5,32.6,12.5,32.4,12.5z M32.7,1.8c-0.3,0-0.6,0-0.8,0c-0.8,0.1-1.5,0.6-1.8,1.4
					c-0.1,0.4-0.1,1-0.1,1.5l0,0c0,0.1,0,0.2,0,0.3l0,4.3c0,0.6,0,1.2,0.1,1.6c0.2,0.7,0.8,1.2,1.5,1.3c0.2,0,0.5,0.1,0.8,0.1
					c0.2,0,0.4,0,0.5,0c0.2,0,0.3,0,0.5,0l3.7,0c0.1,0,0.3,0,0.4,0l0.1,0c0.2,0,0.3,0,0.4,0c0.3,0,0.7,0,0.9-0.1
					c0.8-0.2,1.3-0.8,1.5-1.6c0.1-0.4,0.1-0.8,0.1-1.3l0,0c0-0.2,0-0.3,0-0.5V5.2c0-0.1,0-0.3,0-0.4l0,0c0-0.4,0-0.9-0.1-1.4
					c-0.2-0.7-0.6-1.2-1.3-1.4c-0.3-0.1-0.7-0.1-1.1-0.1l-4.3,0c-0.1,0-0.3,0-0.4,0l-0.1,0C33,1.8,32.8,1.8,32.7,1.8z M32.4,12.2
					c-0.3,0-0.6,0-0.8-0.1c-0.6-0.1-1.1-0.6-1.3-1.2c-0.1-0.4-0.1-0.9-0.1-1.5l0-4.3c0-0.1,0-0.2,0-0.4c0-0.5,0-1.1,0.1-1.5
					c0.2-0.7,0.9-1.1,1.6-1.2c0.2,0,0.5,0,0.8,0c0.1,0,0.3,0,0.4,0l0.1,0c0.2,0,0.3,0,0.5,0L38,2c0.4,0,0.8,0,1.1,0.1
					c0.6,0.2,1,0.7,1.2,1.3c0.1,0.4,0.1,0.9,0.1,1.3c0,0.2,0,0.3,0,0.4l0,3.7c0,0.2,0,0.3,0,0.5c0,0.5,0,0.9-0.1,1.2
					c-0.1,0.7-0.7,1.3-1.4,1.4c-0.3,0.1-0.6,0.1-0.9,0.1c-0.1,0-0.3,0-0.4,0l-0.1,0c-0.1,0-0.2,0-0.4,0l-3.7,0c-0.1,0-0.3,0-0.5,0
					l0,0C32.7,12.2,32.6,12.2,32.4,12.2z M32.7,2.1c-0.3,0-0.6,0-0.8,0c-0.7,0.1-1.3,0.5-1.5,1.2c-0.1,0.4-0.1,0.9-0.1,1.4
					c0,0.1,0,0.3,0,0.4l0,4.3c0,0.6,0,1.1,0.1,1.5c0.2,0.6,0.7,1,1.3,1.1c0.2,0,0.4,0.1,0.7,0.1c0.2,0,0.4,0,0.5,0l0,0
					c0.2,0,0.3,0,0.5,0l3.7,0c0.1,0,0.2,0,0.4,0l0.1,0c0.1,0,0.3,0,0.4,0c0.3,0,0.6,0,0.9-0.1c0.7-0.2,1.2-0.7,1.3-1.4
					c0.1-0.3,0.1-0.8,0-1.2c0-0.2,0-0.3,0-0.5V5.2c0-0.1,0-0.3,0-0.4c0-0.4,0-0.9-0.1-1.3c-0.2-0.6-0.5-1-1.1-1.2
					c-0.3-0.1-0.7-0.1-1-0.1l-0.6,0l-3.7,0c-0.2,0-0.3,0-0.5,0l-0.1,0C33,2.1,32.8,2.1,32.7,2.1z"/>
			</g>
		</g>
		<g>
			<g>
				<path class="st4" d="M46.2,12.4c-0.3,0-0.6,0-0.8-0.1c-0.7-0.2-1.3-0.7-1.5-1.4c-0.2-0.4-0.2-1-0.1-1.6l0-4.3c0-0.1,0-0.2,0-0.4
					c0-0.6,0-1.2,0.1-1.6c0.3-0.8,1-1.3,1.8-1.4c0.2,0,0.5,0,0.8,0c0.2,0,0.4,0,0.6,0c0.2,0,0.3,0,0.5,0l4.3,0c0.4,0,0.8,0,1.2,0.1
					c0.7,0.2,1.1,0.8,1.3,1.5c0.1,0.4,0.1,1,0.1,1.4c0,0.1,0,0.3,0,0.4v3.7c0,0.2,0,0.3,0,0.5c0,0.5,0,0.9-0.1,1.3
					c-0.2,0.8-0.8,1.4-1.6,1.6c-0.3,0.1-0.6,0.1-1,0.1c-0.1,0-0.3,0-0.4,0c-0.2,0-0.3,0-0.5,0l-3.7,0c-0.2,0-0.3,0-0.5,0
					C46.6,12.4,46.4,12.4,46.2,12.4z M46.5,2c-0.3,0-0.6,0-0.8,0c-0.7,0.1-1.3,0.6-1.6,1.2c-0.1,0.4-0.1,0.9-0.1,1.5
					c0,0.1,0,0.3,0,0.4l0,4.3c0,0.6,0,1.1,0.1,1.5c0.2,0.6,0.7,1,1.3,1.2c0.2,0,0.4,0.1,0.7,0.1c0.2,0,0.4,0,0.5,0
					c0.2,0,0.3,0,0.5,0l3.7,0c0.2,0,0.3,0,0.5,0c0.1,0,0.3,0,0.4,0c0.3,0,0.6,0,0.9-0.1c0.7-0.2,1.2-0.7,1.3-1.4
					c0.1-0.3,0.1-0.8,0.1-1.2c0-0.2,0-0.3,0-0.5V5.2c0-0.1,0-0.3,0-0.4c0-0.4,0-0.9-0.1-1.3c-0.2-0.6-0.6-1.1-1.1-1.3
					c-0.3-0.1-0.7-0.1-1-0.1l-0.6,0l-3.7,0c-0.2,0-0.3,0-0.5,0C46.9,2,46.7,2,46.5,2z"/>
				<path class="st4" d="M46.2,12.5c-0.3,0-0.6,0-0.8-0.1c-0.7-0.2-1.3-0.7-1.5-1.4c-0.2-0.4-0.2-1-0.2-1.6l0-4.3c0-0.1,0-0.2,0-0.4
					c0-0.6,0-1.2,0.1-1.6c0.3-0.8,1-1.3,1.9-1.4c0.2,0,0.5,0,0.8,0c0.2,0,0.3,0,0.5,0l0.1,0c0.1,0,0.3,0,0.4,0l4.3,0
					c0.4,0,0.8,0,1.2,0.1c0.7,0.2,1.2,0.8,1.4,1.5c0.1,0.5,0.1,1,0.1,1.4l0,0c0,0.1,0,0.3,0,0.4v3.7c0,0.2,0,0.3,0,0.5l0,0
					c0,0.5,0,0.9-0.1,1.3c-0.2,0.8-0.8,1.5-1.6,1.7c-0.3,0.1-0.7,0.1-1,0.1c-0.1,0-0.3,0-0.4,0l-0.1,0c-0.1,0-0.3,0-0.4,0l-3.7,0
					c-0.2,0-0.3,0-0.5,0C46.6,12.5,46.4,12.5,46.2,12.5z M46.5,1.8c-0.3,0-0.6,0-0.8,0c-0.8,0.1-1.5,0.6-1.8,1.4
					c-0.1,0.4-0.1,1-0.1,1.5c0,0.1,0,0.2,0,0.4l0,4.3c0,0.6,0,1.2,0.1,1.6c0.2,0.7,0.8,1.2,1.5,1.3c0.2,0,0.5,0.1,0.8,0.1
					c0.2,0,0.4,0,0.5,0c0.2,0,0.3,0,0.5,0l3.7,0c0.1,0,0.3,0,0.4,0l0.1,0c0.2,0,0.3,0,0.4,0c0.3,0,0.7,0,0.9-0.1
					c0.8-0.2,1.3-0.8,1.5-1.6c0.1-0.4,0.1-0.8,0.1-1.3l0,0c0-0.2,0-0.3,0-0.5V5.2c0-0.1,0-0.3,0-0.4l0,0c0-0.4,0-0.9-0.1-1.4
					c-0.2-0.7-0.6-1.2-1.3-1.4c-0.3-0.1-0.7-0.1-1.1-0.1l-4.3,0c-0.1,0-0.3,0-0.4,0l-0.1,0C46.9,1.8,46.7,1.8,46.5,1.8z M46.2,12.2
					c-0.3,0-0.6,0-0.8-0.1c-0.6-0.1-1.1-0.6-1.3-1.2C44,10.6,44,10,44,9.4l0-4.3c0-0.1,0-0.2,0-0.4c0-0.5,0-1.1,0.1-1.5
					C44.4,2.6,45,2.1,45.7,2c0.2,0,0.5,0,0.8,0c0.1,0,0.3,0,0.5,0l0.1,0c0.2,0,0.3,0,0.5,0l4.3,0c0.4,0,0.8,0,1.1,0.1
					c0.6,0.2,1,0.7,1.2,1.3c0.1,0.4,0.1,0.9,0.1,1.3c0,0.2,0,0.3,0,0.4v3.7c0,0.2,0,0.3,0,0.5c0,0.5,0,0.9-0.1,1.2
					c-0.1,0.7-0.7,1.3-1.4,1.4c-0.3,0.1-0.6,0.1-0.9,0.1c-0.1,0-0.3,0-0.4,0l-0.1,0c-0.1,0-0.2,0-0.4,0l-3.7,0c-0.1,0-0.3,0-0.5,0
					l0,0C46.6,12.2,46.4,12.2,46.2,12.2z M46.5,2.1c-0.3,0-0.6,0-0.8,0c-0.7,0.1-1.3,0.5-1.5,1.2c-0.1,0.4-0.1,0.9-0.1,1.4
					c0,0.1,0,0.3,0,0.4l0,4.3c0,0.6,0,1.1,0.1,1.5c0.2,0.6,0.7,1,1.3,1.1c0.2,0,0.4,0.1,0.7,0.1c0.2,0,0.4,0,0.5,0l0,0
					c0.2,0,0.3,0,0.5,0l3.7,0c0.1,0,0.2,0,0.4,0l0.1,0c0.1,0,0.3,0,0.4,0c0.3,0,0.6,0,0.9-0.1c0.7-0.2,1.2-0.7,1.3-1.4
					c0.1-0.3,0.1-0.8,0-1.2c0-0.2,0-0.3,0-0.5l0-3.7c0-0.1,0-0.3,0-0.4c0-0.4,0-0.9-0.1-1.3c-0.2-0.6-0.5-1-1.1-1.2
					c-0.3-0.1-0.7-0.1-1-0.1l-0.6,0l-3.7,0c-0.2,0-0.3,0-0.5,0l-0.1,0C46.8,2.1,46.7,2.1,46.5,2.1z"/>
			</g>
		</g>
		<g>
			<g>
				<path class="st3" d="M63.2,6.5c-0.2-0.1-0.4-0.2-0.5-0.3c-0.1-0.5,0.4-0.8,0.5-1.1c0.2-0.8-0.7-1-1.1-0.6c-0.1-0.8,1.3-1.9,2-1
					c0.1,0.2,0.2,0.4,0.2,0.7C64.2,5.4,62.6,5.5,63.2,6.5z"/>
			</g>
			<g>
				<path class="st3" d="M62.7,6.4c-0.1,0-0.2-0.1-0.2-0.2c-0.1-0.3,0.1-0.4,0.1-0.6c0-0.5-0.4-0.5-0.5-0.3c-0.1-0.4,0.4-1,0.8-0.5
					c0.1,0.1,0.1,0.2,0.1,0.4C63,5.8,62.3,5.8,62.7,6.4z"/>
			</g>
			<g>
				<path class="st4" d="M65.1,9.6c-0.1-0.9-0.7-1.9-1.2-2.4c0.1-0.2,0.5-0.6,0.3-0.8c-0.6,0.5-1.8,0.4-2.5,0c0,0.4,0.3,0.5,0.3,0.8
					c-0.7,0.7-1.3,2-1,3.3c0.5,0.5,1.6,0.5,2.7,0.5C64.9,11,65.3,10.7,65.1,9.6z M63.1,10.2c-1.1,0-1.2-2.1-0.2-2.3
					C64.3,7.5,64.2,10.2,63.1,10.2z"/>
			</g>
		</g>
	</g>
</g>
</svg>
