<?xml version="1.0" encoding="utf-8"?>
<!-- Generator: Adobe Illustrator 25.2.0, SVG Export Plug-In . SVG Version: 6.00 Build 0)  -->
<svg version="1.1" id="Layer_1" xmlns="http://www.w3.org/2000/svg" xmlns:xlink="http://www.w3.org/1999/xlink" x="0px" y="0px"
	 viewBox="0 0 354.3 170.1" style="enable-background:new 0 0 354.3 170.1;" xml:space="preserve">
<style type="text/css">
	.st0{fill:#F25E9D;}
	.st1{fill:#ED1973;}
	.st2{fill:#FBD1E3;}
	.st3{fill:#594B3F;}
	.st4{fill:#FABAD5;}
	.st5{fill:#F68CB9;}
	.st6{fill:#F1478F;}
	.st7{fill:#FFFFFF;}
	.st8{fill:#F6F5FA;}
	.st9{fill:#221F1F;}
	.st10{fill:none;}
	.st11{fill:#F8A3C7;}
	.st12{fill:#C1B5D9;}
</style>
<g>
	<g>
		<g>
			<path class="st0" d="M177.7,115.5c-7.3,0-14.5-1.9-20.9-5.5l2.3-4c5.7,3.2,12.1,4.9,18.6,4.9c12.2,0,23.7-5.9,30.9-15.8l3.7,2.7
				C204.2,108.9,191.3,115.5,177.7,115.5z"/>
			<path class="st1" d="M214,95.2l-3.9-2.4c0.9-1.5,1.8-3.1,2.5-4.8l4.2,1.8C216,91.6,215,93.4,214,95.2z"/>
			<path class="st0" d="M219.7,79.7l-4.5-0.7c0.3-2,0.5-4.1,0.5-6.1c0-21-17.1-38-38-38c-2.9,0-5.8,0.3-8.7,1l-1-4.5
				c3.2-0.7,6.4-1.1,9.7-1.1c23.5,0,42.6,19.1,42.6,42.6C220.3,75.2,220.1,77.5,219.7,79.7z"/>
			<path class="st0" d="M135.1,73.8c0-0.3,0-0.6,0-1c0-16.4,9.6-31.5,24.5-38.6l2,4.1c-13.3,6.3-21.8,19.8-21.8,34.4
				c0,0.3,0,0.6,0,0.9L135.1,73.8z"/>
			<path class="st2" d="M232,72.9c0-2.4-7.5-4.3-7.8-6.7c-0.3-2.4,6.3-6.3,5.6-8.6c-0.7-2.3-8.4-2-9.4-4.2c-1-2.2,4.3-7.8,3-9.9
				c-1.3-2-8.6,0.4-10.2-1.4c-1.6-1.8,1.9-8.7,0.1-10.3c-1.8-1.6-8.1,2.8-10.2,1.5c-2-1.3-0.6-8.9-2.8-9.9c-2.2-1-7,5-9.3,4.3
				c-2.3-0.7-3.1-8.3-5.5-8.7c-2.4-0.3-5.3,6.8-7.7,6.8c-2.4,0-5.4-7.1-7.7-6.8c-2.4,0.3-3.2,8-5.5,8.7c-2.3,0.7-7.2-5.3-9.3-4.3
				c-2.2,1-0.8,8.6-2.8,9.9c-2,1.3-8.4-3.1-10.2-1.5c-1.8,1.6,1.6,8.5,0.1,10.3c-1.6,1.8-8.9-0.6-10.2,1.4c-1.3,2,4,7.7,2.9,9.9
				c-1,2.2-8.7,1.9-9.4,4.2c-0.7,2.3,6,6.2,5.6,8.6c-0.3,2.4-7.8,4.2-7.8,6.7c0,2.4,7.5,4.3,7.8,6.7c0.3,2.4-6.3,6.3-5.6,8.6
				c0.7,2.3,8.4,2,9.4,4.2c1,2.2-4.3,7.8-2.9,9.9c1.3,2,8.6-0.4,10.2,1.4c1.6,1.8-1.9,8.7-0.1,10.3c1.8,1.6,8.1-2.8,10.2-1.5
				c2,1.3,0.6,8.9,2.8,9.9c2.2,1,7-5,9.3-4.3c2.3,0.7,3.1,8.3,5.5,8.7c2.4,0.3,5.3-6.8,7.7-6.8c2.4,0,5.4,7.1,7.7,6.8
				c2.4-0.3,3.2-8,5.5-8.7c2.3-0.7,7.2,5.3,9.3,4.3c2.2-1,0.8-8.6,2.8-9.9c2-1.3,8.4,3.1,10.2,1.5c1.8-1.6-1.6-8.5-0.1-10.3
				c1.6-1.8,8.9,0.6,10.2-1.4c1.3-2-4-7.7-3-9.9c1-2.2,8.7-1.9,9.4-4.2c0.7-2.3-6-6.2-5.6-8.6C224.5,77.2,232,75.3,232,72.9z
				 M177.7,115.5c-23.5,0-42.6-19.1-42.6-42.6s19.1-42.6,42.6-42.6c23.5,0,42.6,19.1,42.6,42.6S201.2,115.5,177.7,115.5z"/>
			<path class="st0" d="M177.7,116c-4,0-7.9-0.5-11.7-1.6l0.2-0.9c3.7,1,7.6,1.6,11.4,1.6c7.4,0,14.6-1.9,20.9-5.6l0.2,0.4l-0.2-0.4
				c1-0.6,2-1.2,2.9-1.8l0.5,0.8c-1,0.7-2,1.3-3,1.9C192.6,114,185.2,116,177.7,116z M220.7,74.6l-0.9,0c0-0.4,0-0.8,0-1.2l0.4,0
				l-0.4,0c0-0.2,0-0.3,0-0.5h0.9c0,0.2,0,0.3,0,0.5C220.7,73.8,220.7,74.2,220.7,74.6z M219.6,68.8c-0.1-1.4-0.4-2.9-0.6-4.3
				l0.4-0.1l-0.4,0.1c-2.8-13.8-12.2-25.2-25.2-30.6l0.4-0.8c13.3,5.5,22.9,17.2,25.8,31.2c0.3,1.4,0.5,2.9,0.7,4.4L219.6,68.8z
				 M136.2,65.3l-0.9-0.2c0.1-0.5,0.2-1,0.3-1.6l0.9,0.2C136.4,64.2,136.3,64.8,136.2,65.3z M137.4,60.4l-0.9-0.3
				c1.2-3.8,2.9-7.4,5.1-10.8l0.8,0.5C140.2,53.1,138.6,56.7,137.4,60.4z M190.4,32.7c-2-0.6-4.2-1.1-6.3-1.5l0.1-0.9
				c2.2,0.3,4.3,0.8,6.4,1.5L190.4,32.7z"/>
			
				<rect x="149.6" y="88.9" transform="matrix(0.9978 -6.687732e-02 6.687732e-02 0.9978 -5.5984 11.3984)" class="st3" width="35.8" height="0.9"/>
			<path class="st4" d="M182.9,54.4l-6.5-7.4c-6.9-7.9-19.9-3.1-19.9,7.4v0H182.9z"/>
			<g>
				<path class="st5" d="M156.5,54.4h2.8c0-4.4,2.9-7,5.6-8c2.7-1,6.6-0.9,9.5,2.4l4.9,5.6l1.6,1.8l2.1-1.8l-6.5-7.4
					C169.5,39,156.5,43.9,156.5,54.4z"/>
			</g>
			<path class="st4" d="M157.1,52.5l-0.9-0.2c0.7-4.2,3.7-7.7,7.9-9.1c4.2-1.4,8.6-0.5,11.8,2.5l-0.6,0.7c-2.9-2.8-7-3.6-10.9-2.3
				C160.5,45.4,157.8,48.6,157.1,52.5z"/>
			<path class="st5" d="M172.5,54.4l6.5-7.4c6.9-7.9,19.9-3.1,19.9,7.4v0H172.5z"/>
			<g>
				<path class="st4" d="M198.8,54.4h-2.8c0-4.4-2.9-7-5.6-8c-2.7-1-6.6-0.9-9.5,2.4l-4.9,5.6l-1.6,1.8l-2.1-1.8l6.5-7.4
					C185.8,39,198.8,43.9,198.8,54.4z"/>
			</g>
			<rect x="150.3" y="54.4" class="st0" width="54.7" height="49"/>
			
				<rect x="148.7" y="54.4" transform="matrix(-1 -1.224647e-16 1.224647e-16 -1 355.3475 125.6442)" class="st6" width="58" height="16.9"/>
			<polygon class="st1" points="205,71.3 150.3,79.8 150.3,71.3 			"/>
			<polygon class="st1" points="205,88.6 182.9,92 182.9,103.4 205,103.4 			"/>
			<polygon class="st1" points="150.3,97.1 150.3,103.4 172.5,103.4 172.5,93.6 			"/>
			<polygon class="st1" points="205,78.5 182.9,82 182.9,88.4 205,85 			"/>
			<polygon class="st1" points="150.3,87 150.3,93.5 172.5,90 172.5,83.6 			"/>
			<polygon class="st5" points="172.5,83.6 172.5,90 182.9,88.4 182.9,82 			"/>
			<polygon class="st4" points="172.5,54.4 172.5,83.6 182.9,82 182.9,54.4 			"/>
			<polygon class="st5" points="172.5,93.6 172.5,103.4 182.9,103.4 182.9,92 			"/>
			<polygon class="st4" points="172.5,90 172.5,93.6 182.9,92 182.9,88.4 			"/>
			<polygon class="st5" points="172.5,71.3 172.5,76.3 182.9,74.7 182.9,71.3 			"/>
			<rect x="182.4" y="54.4" class="st7" width="0.9" height="31.4"/>
			<rect x="168.4" y="53.9" class="st7" width="21.4" height="0.9"/>
			<rect x="165.7" y="53.9" class="st7" width="0.9" height="0.9"/>
			<rect x="159.3" y="53.9" class="st7" width="3.9" height="0.9"/>
			<rect x="182.4" y="86.8" class="st7" width="0.9" height="1.5"/>
			<rect x="182.4" y="90.6" class="st7" width="0.9" height="0.7"/>
			<rect x="148.7" y="70.8" class="st3" width="13" height="0.9"/>
			<rect x="162.9" y="70.8" class="st3" width="1.4" height="0.9"/>
			<path class="st7" d="M191.5,75h-0.2c-1,0-1.8-0.8-1.8-1.8V73c0-0.1-0.1-0.2-0.2-0.2c-0.1,0-0.2,0.1-0.2,0.2v0.2
				c0,0.5-0.2,1-0.5,1.3c-0.3,0.3-0.8,0.5-1.3,0.5h-0.2c-0.1,0-0.2,0.1-0.2,0.2s0.1,0.2,0.2,0.2h0.2c1,0,1.8,0.8,1.8,1.8v0.2
				c0,0.1,0.1,0.2,0.2,0.2c0.1,0,0.2-0.1,0.2-0.2v-0.2c0-1,0.8-1.8,1.8-1.8h0.2c0.1,0,0.2-0.1,0.2-0.2S191.5,75,191.5,75z"/>
			<path class="st7" d="M176.9,65.6h-0.3c-1.9,0-3.5-1.6-3.5-3.5v-0.3c0-0.2-0.1-0.3-0.3-0.3c-0.2,0-0.3,0.1-0.3,0.3v0.3
				c0,1-0.4,1.8-1,2.5c-0.6,0.6-1.5,1-2.5,1h-0.3c-0.2,0-0.3,0.1-0.3,0.3s0.1,0.3,0.3,0.3h0.3c1.9,0,3.5,1.6,3.5,3.5V70
				c0,0.2,0.1,0.3,0.3,0.3c0.2,0,0.3-0.1,0.3-0.3v-0.3c0-1.9,1.6-3.5,3.5-3.5h0.3c0.2,0,0.3-0.1,0.3-0.3S177,65.6,176.9,65.6z"/>
			<path class="st7" d="M192,56.4h-0.5c-3.3,0-6-2.7-6-6v-0.5c0-0.3-0.2-0.5-0.5-0.5c-0.3,0-0.5,0.2-0.5,0.5v0.5
				c0,1.7-0.7,3.2-1.8,4.2c-1.1,1.1-2.6,1.8-4.2,1.8H178c-0.3,0-0.5,0.2-0.5,0.5c0,0.3,0.2,0.5,0.5,0.5h0.5c3.3,0,6,2.7,6,6v0.5
				c0,0.3,0.2,0.5,0.5,0.5c0.3,0,0.5-0.2,0.5-0.5v-0.5c0-3.3,2.7-6,6-6h0.5c0.3,0,0.5-0.2,0.5-0.5C192.5,56.6,192.3,56.4,192,56.4z"
				/>
		</g>
		<rect x="149.9" y="71.3" class="st3" width="0.9" height="13.7"/>
	</g>
	<rect x="28.8" y="144.7" class="st0" width="292.9" height="4.6"/>
	<g>
		<path class="st8" d="M102.6,149.3H65.2H102.6z"/>
		<rect x="65.2" y="148.8" class="st9" width="37.4" height="0.9"/>
	</g>
	<g>
		<path class="st8" d="M111.5,149.3h-4.2H111.5z"/>
		<rect x="107.2" y="148.8" class="st9" width="4.2" height="0.9"/>
	</g>
	<rect x="273.5" y="154.2" class="st2" width="63.4" height="4.6"/>
	<rect x="254.4" y="154.2" class="st0" width="14.1" height="4.6"/>
	<rect x="55.5" y="163.4" class="st2" width="13.8" height="2.3"/>
	<rect x="73.8" y="163.4" class="st2" width="3" height="2.3"/>
	<rect x="82.5" y="163.4" class="st2" width="102.7" height="2.3"/>
	<rect x="192.8" y="163.4" class="st2" width="29.2" height="2.3"/>
	<rect x="221.2" y="163.4" class="st2" width="72.5" height="2.3"/>
	<rect x="300.7" y="163.4" class="st2" width="3.3" height="2.3"/>
	<rect x="164.4" y="154.2" class="st2" width="92.6" height="4.6"/>
	<rect x="142.4" y="154.2" class="st0" width="17.1" height="4.6"/>
	<rect x="136.6" y="154.2" class="st1" width="3.6" height="4.6"/>
	<rect x="94.3" y="154.2" class="st2" width="40" height="4.6"/>
	<rect x="4.9" y="154.2" class="st2" width="83.8" height="4.6"/>
	<g>
		<path class="st10" d="M276.7,87.9C276.8,87.9,276.8,87.9,276.7,87.9L276.7,87.9L276.7,87.9z"/>
		<path class="st10" d="M318.6,43c1.2,0,2.2-1,2.2-2.2c0-1.2-1-2.2-2.2-2.2c-1.2,0-2.2,1-2.2,2.2C316.4,42,317.4,43,318.6,43z"/>
		<circle class="st10" cx="308.9" cy="113.8" r="2.2"/>
		<path class="st10" d="M321.8,124c-3,0-5.4,2.4-5.4,5.4s2.4,5.4,5.4,5.4c3,0,5.4-2.4,5.4-5.4S324.8,124,321.8,124z"/>
		<rect x="116.5" y="148.8" class="st9" width="101.8" height="0.9"/>
		<path class="st1" d="M308.9,110.7c-1.7,0-3.1,1.4-3.1,3.1c0,1.7,1.4,3.1,3.1,3.1s3.1-1.4,3.1-3.1
			C312.1,112.1,310.7,110.7,308.9,110.7z M308.9,116c-1.2,0-2.2-1-2.2-2.2c0-1.2,1-2.2,2.2-2.2c1.2,0,2.2,1,2.2,2.2
			C311.2,115,310.2,116,308.9,116z"/>
		<path class="st1" d="M318.6,43.9c1.7,0,3.1-1.4,3.1-3.1c0-1.7-1.4-3.1-3.1-3.1c-1.7,0-3.1,1.4-3.1,3.1
			C315.5,42.5,316.9,43.9,318.6,43.9z M318.6,38.5c1.2,0,2.2,1,2.2,2.2c0,1.2-1,2.2-2.2,2.2c-1.2,0-2.2-1-2.2-2.2
			C316.4,39.5,317.4,38.5,318.6,38.5z"/>
		<path class="st1" d="M321.8,123.1c-3.5,0-6.3,2.8-6.3,6.3s2.8,6.3,6.3,6.3c3.5,0,6.3-2.8,6.3-6.3S325.3,123.1,321.8,123.1z
			 M321.8,134.8c-3,0-5.4-2.4-5.4-5.4s2.4-5.4,5.4-5.4c3,0,5.4,2.4,5.4,5.4S324.8,134.8,321.8,134.8z"/>
		<polygon class="st1" points="297.3,148.8 297.7,144.7 294.5,144.7 294.1,148.8 		"/>
		<path class="st4" d="M277.1,80.3c-0.4-0.3-0.8-0.7-1.2-1.1l-4.1-5.1c-1.6-2-1.3-4.9,0.7-6.5l1.7-1.4l0,0c1.2-0.9,1.4-2.7,0.4-3.9
			l-0.3-0.3c-1.3-1.6-1-3.8,0.5-5.1l0,0c-0.4-0.3-0.7-0.6-1-0.9l-10.4,7.5c-0.1,0.1-0.2,0.2-0.3,0.2c-0.6,0.5-1.1,1.2-1.3,2
			c-0.5,1.4-0.3,3.1,0.8,4.3l0,0c0,0,0,0,0,0l3.3,4.1l-3.8,11.2h13.3L277.1,80.3z"/>
		<polygon class="st7" points="247.2,17.2 247.2,15.9 247.1,15.1 247.1,15.1 247.2,17.2 240.7,17.3 240.2,20.4 240.2,20.4 
			247.3,20.2 		"/>
		<path class="st4" d="M247.2,17.2l-0.1-2l0,0l0,0.7l2.8-5.7l0,0c0.2-0.3,0.3-0.7,0.4-1.1c0.4-2.2-1.1-4.3-3.3-4.6
			c-2.2-0.4-4.3,1.1-4.6,3.3l-1.2,6.9c0,0,0,0,0,0h0l-0.4,2.6l0,0L247.2,17.2z"/>
		<path class="st4" d="M347.6,39.4c-1.9-1.2-4.4-0.7-5.6,1.1c-0.2,0.3-0.4,0.7-0.5,1l0,0l-1.9,6l0.5-0.5l0,0l-1.4,1.5l4.6,4.6l0,0
			l1.5-2.2l0,0c0,0,0,0,0,0l3.9-5.9C350,43.1,349.5,40.6,347.6,39.4z"/>
		<polygon class="st7" points="259.8,87.9 276.7,87.9 276.7,87.9 276.8,87.9 277,87.9 277.8,87.9 277.8,85.2 275.4,85.2 262.1,85.2 
			259.3,85.2 260.2,87.8 		"/>
		<path class="st1" d="M313.5,74.2L277.8,88c-0.3,0-0.5,0-0.8-0.1h-0.1c0,0-0.1,0-0.1,0v0v0h-16.9l-0.5,0.2l-11.7-34.3l-0.3-11.3
			l0.5,0l-0.1-2.5l-0.5,0l0-1.2l0.5,0l-0.5-18.5l-7.1,0.2l-5.7,33.3c0,0,0,0,0,0c-0.1,0.8-0.1,1.6,0,2.4l0,0l8.1,43.6l0,0
			c0.1,0.3,0.1,0.6,0.2,0.9c0,0.1,0,0.1,0.1,0.2l-24.1,48.4l0.1,0h15.5l1.6-15.9c0-0.3,0.1-0.6,0.1-0.9l-0.5-0.1
			c2-14.7,14.6-25.7,29.4-25.7c3.4,0,6.8,0.6,10,1.7l-0.2,0.4c0.7,0.3,1.4,0.5,2.1,0.8c0.3,0.1,0.7,0.3,1,0.5
			c0.1,0.1,0.2,0.1,0.4,0.2c0.2,0.1,0.4,0.2,0.6,0.3c0.1,0.1,0.3,0.2,0.4,0.2c0.2,0.1,0.3,0.2,0.5,0.3c0.1,0.1,0.3,0.2,0.4,0.2
			l2.4-3.9c0.7-0.2,1.4-0.5,2.1-0.9l0,0l36-20.6l0,0c0.9-0.5,1.7-1.2,2.3-2.2c0,0,0,0,0,0l18.6-28.2l-5.1-5L313.5,74.2z"/>
		<polygon class="st7" points="338.8,48.5 340.2,47.1 340.2,47.1 339.7,47.6 338.8,48.5 336.7,50.7 341.7,55.6 343.4,53.1 		"/>
		<path class="st11" d="M290.1,121.3c0.1,0.1,0.1,0.2,0.2,0.4C290.2,121.6,290.1,121.5,290.1,121.3z"/>
		<path class="st11" d="M281.7,112.4c0.1,0.1,0.3,0.2,0.4,0.3C282,112.6,281.8,112.5,281.7,112.4z"/>
		<path class="st11" d="M283.4,113.7c0.1,0.1,0.3,0.2,0.4,0.4C283.7,113.9,283.5,113.8,283.4,113.7z"/>
		<path class="st11" d="M290.6,122.3c0.1,0.1,0.1,0.2,0.2,0.3C290.8,122.5,290.7,122.4,290.6,122.3z"/>
		<path class="st11" d="M288.2,118.6c0.1,0.1,0.2,0.3,0.3,0.4C288.4,118.9,288.3,118.8,288.2,118.6z"/>
		<path class="st11" d="M284.2,114.4c0.1,0.1,0.3,0.2,0.4,0.4C284.5,114.6,284.3,114.5,284.2,114.4z"/>
		<path class="st11" d="M291.2,123.4c0,0.1,0.1,0.1,0.1,0.2C291.3,123.5,291.2,123.5,291.2,123.4z"/>
		<path class="st11" d="M288.9,119.5c0.1,0.1,0.2,0.3,0.3,0.4C289,119.8,289,119.6,288.9,119.5z"/>
		<path class="st11" d="M287.5,117.8c0.1,0.1,0.2,0.3,0.3,0.4C287.8,118.1,287.7,117.9,287.5,117.8z"/>
		<path class="st11" d="M289.5,120.4c0.1,0.1,0.2,0.3,0.2,0.4C289.6,120.7,289.6,120.5,289.5,120.4z"/>
		<path class="st11" d="M286.8,117c0.1,0.1,0.2,0.3,0.3,0.4C287.1,117.2,287,117.1,286.8,117z"/>
		<path class="st11" d="M285.5,115.6c-0.2-0.2-0.3-0.3-0.5-0.5C285.2,115.2,285.3,115.4,285.5,115.6z"/>
		<path class="st11" d="M286.1,116.2c0.1,0.1,0.2,0.2,0.3,0.4C286.3,116.4,286.2,116.3,286.1,116.2z"/>
		<path class="st11" d="M293.5,129.8c0,0.1,0.1,0.2,0.1,0.3C293.6,130,293.5,129.9,293.5,129.8z"/>
		<path class="st11" d="M292.2,125.6c0,0.1,0,0.1,0.1,0.2C292.2,125.7,292.2,125.7,292.2,125.6z"/>
		<path class="st11" d="M293.2,128.7c0,0.1,0.1,0.2,0.1,0.3C293.3,129,293.3,128.8,293.2,128.7z"/>
		<path class="st11" d="M294.3,135.8c0,0.1,0,0.1,0,0.2C294.3,135.9,294.3,135.8,294.3,135.8z"/>
		<path class="st11" d="M293.7,130.9c0,0.1,0,0.2,0.1,0.3C293.8,131.1,293.8,131,293.7,130.9z"/>
		<path class="st11" d="M294.1,133.2c0,0.1,0,0.2,0,0.2C294.1,133.4,294.1,133.3,294.1,133.2z"/>
		<path class="st11" d="M293.9,132.1c0,0.1,0,0.2,0,0.3C294,132.3,294,132.2,293.9,132.1z"/>
		<path class="st11" d="M294.3,136.9c0,0.1,0,0.2,0,0.3C294.2,137.1,294.3,137,294.3,136.9z"/>
		<path class="st11" d="M280.8,111.8c0.2,0.1,0.3,0.2,0.4,0.3C281.1,112,280.9,111.9,280.8,111.8z"/>
		<path class="st11" d="M294.2,138c0,0.1,0,0.2,0,0.3C294.2,138.2,294.2,138.1,294.2,138z"/>
		<path class="st11" d="M282.5,113c0.1,0.1,0.3,0.2,0.4,0.3C282.8,113.2,282.7,113.1,282.5,113z"/>
		<path class="st11" d="M292.9,127.7c0,0.1,0.1,0.2,0.1,0.3C293,127.9,293,127.8,292.9,127.7z"/>
		<path class="st11" d="M292.6,126.6c0,0.1,0.1,0.2,0.1,0.3C292.6,126.8,292.6,126.7,292.6,126.6z"/>
		<path class="st11" d="M278,110.2c0.1,0.1,0.2,0.1,0.4,0.2C278.2,110.3,278.1,110.3,278,110.2z"/>
		<path class="st11" d="M278.9,110.7c0.1,0.1,0.3,0.2,0.4,0.2C279.2,110.9,279.1,110.8,278.9,110.7z"/>
		<path class="st11" d="M280.3,111.5C280.3,111.5,280.3,111.5,280.3,111.5c-0.2-0.1-0.3-0.2-0.4-0.3
			C280,111.3,280.2,111.4,280.3,111.5z"/>
		<path class="st11" d="M241,148.8l0.5-4.9l0-0.3l0.8-8.2c1.5-14.9,14.1-26.2,29-26.2c1.9,0,3.8,0.2,5.6,0.5
			c-0.7-0.3-1.4-0.6-2.1-0.8l-0.2,0.4c-3.1-1.1-6.3-1.7-9.7-1.7c-14.3,0-26.6,10.7-28.5,24.9l-0.4-0.1c0,0.3-0.1,0.6-0.1,0.9
			l-1.6,15.9h3.4h1.1v-0.5H241z"/>
		<path class="st7" d="M265.1,107.7c3.3,0,6.6,0.6,9.7,1.7l0.2-0.4l0.2-0.4c-3.2-1.1-6.5-1.7-10-1.7c-14.8,0-27.4,11.1-29.4,25.7
			l0.5,0.1l0.4,0.1C238.5,118.4,250.7,107.7,265.1,107.7z"/>
		<path class="st9" d="M274.9,56.8L274.9,56.8c-1.5,1.3-1.8,3.5-0.5,5.1l0.3,0.3c1,1.2,0.8,2.9-0.4,3.9l0,0l-1.7,1.4
			c-2,1.6-2.3,4.5-0.7,6.5l4.1,5.1c0.4,0.4,0.8,0.8,1.2,1.1c2.2,1.6,5.3,1.6,7.6-0.2l2.6-2.1l5.2-4.2c3.8-3,4.5-8.5,1.8-12.4
			c1-1.3,1.1-3.2,0-4.6c-0.7-0.9-1.8-1.4-2.9-1.4c0.1-0.9-0.2-1.8-0.8-2.6l-0.3-0.4h0l-3.1-3.8l0,0l-0.2-0.2
			c-0.3-0.3-0.6-0.6-0.9-0.8c-1.7-1.2-3.9-1.3-5.7-0.4c-1.8-0.9-4.1-0.7-5.8,0.7c-2.4,1.9-2.8,5.4-0.9,7.8c0,0,0.1,0.1,0.1,0.1
			C274.2,56.2,274.5,56.5,274.9,56.8z"/>
		<polygon class="st7" points="294,149.8 294,149.7 293.5,149.7 		"/>
		<polygon class="st7" points="293.1,148.8 294.1,148.8 294.5,144.7 294.6,143.2 293.7,143.1 		"/>
		<path class="st5" d="M279.9,111.2c-0.2-0.1-0.3-0.2-0.5-0.3c-0.1-0.1-0.3-0.2-0.4-0.2c-0.2-0.1-0.4-0.2-0.6-0.3
			c-0.1-0.1-0.2-0.1-0.4-0.2c-0.3-0.2-0.6-0.3-1-0.5c-1.8-0.3-3.7-0.5-5.6-0.5c-15,0-27.5,11.3-29,26.2l-0.8,8.2l0,0.3l-0.5,4.9h0.7
			l52.3-8.1l0.1-1.3c0-0.4,0.1-0.7,0.1-1.1c0-0.1,0-0.2,0-0.3c0-0.3,0-0.5,0-0.8c0-0.1,0-0.2,0-0.3c0-0.3,0-0.6,0-0.9
			c0-0.1,0-0.1,0-0.2c0,0,0,0,0-0.1c0-0.7-0.1-1.5-0.1-2.2c0-0.1,0-0.2,0-0.2c0-0.3-0.1-0.6-0.1-0.9c0-0.1,0-0.2,0-0.3
			c0-0.3-0.1-0.5-0.1-0.8c0-0.1,0-0.2-0.1-0.3c0-0.3-0.1-0.5-0.2-0.8c0-0.1,0-0.2-0.1-0.3c-0.1-0.3-0.1-0.5-0.2-0.8
			c0-0.1-0.1-0.2-0.1-0.3c-0.1-0.3-0.1-0.5-0.2-0.8c0-0.1-0.1-0.2-0.1-0.3c-0.1-0.3-0.2-0.5-0.3-0.8c0-0.1-0.1-0.2-0.1-0.3
			c-0.1-0.3-0.2-0.6-0.3-0.9c0-0.1,0-0.1-0.1-0.2c-0.3-0.7-0.6-1.4-0.9-2c0-0.1-0.1-0.1-0.1-0.2c-0.1-0.3-0.3-0.5-0.4-0.8
			c-0.1-0.1-0.1-0.2-0.2-0.3c-0.1-0.2-0.2-0.4-0.4-0.6c-0.1-0.1-0.1-0.2-0.2-0.4c-0.1-0.2-0.2-0.4-0.3-0.6c-0.1-0.1-0.2-0.3-0.2-0.4
			c-0.1-0.2-0.2-0.3-0.3-0.5c-0.1-0.1-0.2-0.3-0.3-0.4c-0.1-0.2-0.2-0.3-0.3-0.5c-0.1-0.1-0.2-0.3-0.3-0.4c-0.1-0.2-0.2-0.3-0.4-0.4
			c-0.1-0.1-0.2-0.3-0.3-0.4c-0.1-0.1-0.2-0.3-0.4-0.4c-0.1-0.1-0.2-0.3-0.3-0.4c-0.1-0.1-0.3-0.3-0.4-0.4c-0.1-0.1-0.2-0.2-0.3-0.4
			c-0.2-0.2-0.4-0.4-0.6-0.6c-0.2-0.2-0.3-0.3-0.5-0.5c-0.1-0.1-0.3-0.2-0.4-0.4c-0.1-0.1-0.3-0.2-0.4-0.4c-0.1-0.1-0.3-0.2-0.4-0.3
			c-0.1-0.1-0.3-0.2-0.4-0.4c-0.1-0.1-0.3-0.2-0.4-0.3c-0.1-0.1-0.3-0.2-0.4-0.3c-0.1-0.1-0.3-0.2-0.4-0.3c-0.1-0.1-0.3-0.2-0.4-0.3
			c-0.1-0.1-0.3-0.2-0.4-0.3c-0.1-0.1-0.3-0.2-0.4-0.3c-0.2-0.1-0.3-0.2-0.5-0.3C280.2,111.4,280,111.3,279.9,111.2z"/>
		<polygon class="st3" points="247.7,53.8 259.3,88.1 259.8,87.9 260.2,87.8 259.3,85.2 248.6,53.6 248.3,42.4 247.8,42.4 
			247.4,42.4 		"/>
		<polygon class="st3" points="247.3,39.9 247.8,39.9 248.2,39.9 248.2,38.7 247.7,38.7 247.3,38.7 		"/>
		<polygon class="st4" points="241.7,148.8 293.1,148.8 293.7,143.1 294,140.7 		"/>
		<polygon class="st9" points="293.1,148.8 241.7,148.8 241,148.8 238.8,148.8 238.8,149.3 238.8,149.7 293.5,149.7 294,149.7 
			303.3,149.7 303.3,148.8 297.3,148.8 294.1,148.8 		"/>
	</g>
	<path class="st2" d="M154.9,127.5h-0.5c-3.5,0-6.4-2.9-6.4-6.4v-0.5c0-0.3-0.2-0.5-0.5-0.5c-0.3,0-0.5,0.2-0.5,0.5v0.5
		c0,1.8-0.7,3.4-1.9,4.5c-1.2,1.2-2.8,1.9-4.5,1.9h-0.5c-0.3,0-0.5,0.2-0.5,0.5c0,0.3,0.2,0.5,0.5,0.5h0.5c3.5,0,6.4,2.9,6.4,6.4
		v0.5c0,0.3,0.2,0.5,0.5,0.5c0.3,0,0.5-0.2,0.5-0.5v-0.5c0-3.5,2.9-6.4,6.4-6.4h0.5c0.3,0,0.5-0.2,0.5-0.5
		C155.4,127.7,155.2,127.5,154.9,127.5z"/>
	<path class="st2" d="M138.5,32.3h-0.3c-2,0-3.5-1.6-3.5-3.5v-0.3c0-0.2-0.1-0.3-0.3-0.3c-0.2,0-0.3,0.1-0.3,0.3v0.3
		c0,1-0.4,1.9-1,2.5c-0.6,0.6-1.5,1-2.5,1h-0.3c-0.2,0-0.3,0.1-0.3,0.3c0,0.2,0.1,0.3,0.3,0.3h0.3c2,0,3.5,1.6,3.5,3.5v0.3
		c0,0.2,0.1,0.3,0.3,0.3c0.2,0,0.3-0.1,0.3-0.3v-0.3c0-2,1.6-3.5,3.5-3.5h0.3c0.2,0,0.3-0.1,0.3-0.3
		C138.8,32.4,138.7,32.3,138.5,32.3z"/>
	<path class="st2" d="M216.2,136.6h-0.3c-2,0-3.5-1.6-3.5-3.5v-0.3c0-0.2-0.1-0.3-0.3-0.3c-0.2,0-0.3,0.1-0.3,0.3v0.3
		c0,1-0.4,1.9-1,2.5c-0.6,0.6-1.5,1-2.5,1h-0.3c-0.2,0-0.3,0.1-0.3,0.3c0,0.2,0.1,0.3,0.3,0.3h0.3c2,0,3.5,1.6,3.5,3.5v0.3
		c0,0.2,0.1,0.3,0.3,0.3c0.2,0,0.3-0.1,0.3-0.3v-0.3c0-2,1.6-3.5,3.5-3.5h0.3c0.2,0,0.3-0.1,0.3-0.3
		C216.5,136.7,216.4,136.6,216.2,136.6z"/>
	<path class="st2" d="M228,25h-0.3c-2,0-3.5-1.6-3.5-3.5v-0.3c0-0.2-0.1-0.3-0.3-0.3c-0.2,0-0.3,0.1-0.3,0.3v0.3c0,1-0.4,1.9-1,2.5
		c-0.6,0.6-1.5,1-2.5,1h-0.3c-0.2,0-0.3,0.1-0.3,0.3c0,0.2,0.1,0.3,0.3,0.3h0.3c2,0,3.5,1.6,3.5,3.5v0.3c0,0.2,0.1,0.3,0.3,0.3
		c0.2,0,0.3-0.1,0.3-0.3v-0.3c0-2,1.6-3.5,3.5-3.5h0.3c0.2,0,0.3-0.1,0.3-0.3C228.3,25.1,228.1,25,228,25z"/>
	<path class="st2" d="M153.9,12.5h-0.5c-3.1,0-5.6-2.5-5.6-5.6V6.4c0-0.3-0.2-0.5-0.5-0.5c-0.3,0-0.5,0.2-0.5,0.5v0.5
		c0,1.5-0.6,3-1.6,4c-1,1-2.4,1.6-4,1.6h-0.5c-0.3,0-0.5,0.2-0.5,0.5c0,0.3,0.2,0.5,0.5,0.5h0.5c3.1,0,5.6,2.5,5.6,5.6v0.5
		c0,0.3,0.2,0.5,0.5,0.5c0.3,0,0.5-0.2,0.5-0.5V19c0-3.1,2.5-5.6,5.6-5.6h0.5c0.3,0,0.5-0.2,0.5-0.5
		C154.4,12.7,154.2,12.5,153.9,12.5z"/>
	<g>
		<polygon class="st3" points="76.9,136.2 75.5,142.1 75,142 74.4,144.7 85.9,144.7 87.5,144.7 87.5,144.7 115.2,144.7 115.2,142.4 
			99,142.4 100.2,132.6 		"/>
		<polygon class="st12" points="100.2,132.5 100.5,129.5 100.5,129.5 		"/>
		<polygon class="st0" points="78.5,129.5 76.9,136.2 100.2,132.6 100.2,132.6 100.2,132.5 100.5,129.5 		"/>
		<path class="st0" d="M131.5,120.9H51.4V77.3h24.2l0.3-2.1H49.3v53.4h67v0.5h3.8v-0.5h6.9v0.5h6.5V97.4l-2.1,0.2V120.9z
			 M91.4,126.6c-0.9,0-1.6-0.7-1.6-1.6c0-0.9,0.7-1.6,1.6-1.6c0.9,0,1.6,0.7,1.6,1.6C93,125.8,92.3,126.6,91.4,126.6z"/>
		<polygon class="st0" points="133.5,75.2 133.1,75.2 133.5,75.5 		"/>
		<path class="st7" d="M51.4,120.9h80.1V97.7l-12.2,1.4l3.5-0.4l0.1,0.9l-9.1,1.1l0,0c0,0-0.1,0-0.2,0c-2.2,0-3.9-1.1-4-1.2
			l-0.9-0.7l-2.4,7l0,0l23.5-3.7v5l-25.3,3.9l-1.2,3.5l26.4-4.1v8.6h-28H74.6h-5.8l0.4-2.5l-16,2.5v-5l16.8-2.6l0.4-2.2l-17.2,2.7
			v-1.9l17.5-2.7l0.3-1.6l-17.8,2.8v-4.9l18.6-2.9l1.1-6.7L53.2,97V79.1h22.1l0.3-1.8H51.4V120.9z M126.3,99.2l-0.1-0.9l2.2-0.3
			l0.1,0.9L126.3,99.2z"/>
		<path class="st7" d="M110.6,99.1c-0.3-0.2-0.6-0.4-0.9-0.6l0.3,0.2C110,98.7,110.2,98.9,110.6,99.1z"/>
		<path class="st7" d="M113.7,99.7l0.5-0.1l0,0c-0.4,0-0.8,0.1-1.1,0c0.1,0,0.3,0,0.4,0C113.5,99.7,113.6,99.7,113.7,99.7z"/>
		<path class="st7" d="M112.6,99.7c0.1,0,0.1,0,0.2,0C112.8,99.7,112.7,99.7,112.6,99.7z"/>
		<polygon class="st7" points="123.7,86 116,87.2 116.2,87.4 128.8,88.5 		"/>
		<polygon class="st2" points="53.2,97 72.9,93.9 75.3,79.1 53.2,79.1 		"/>
		<polygon class="st2" points="114.9,81.7 114.2,83.7 113.7,83.6 113.4,84.6 116,87.2 123.7,86 		"/>
		<polygon class="st3" points="49.3,128.6 49.3,128.6 49.3,129.5 77.5,129.5 74.6,141.9 75,142 75.5,142.1 76.9,136.2 78.5,129.5 
			100.5,129.5 100.5,129.5 116.3,129.5 116.3,129.1 116.3,128.6 		"/>
		<path class="st0" d="M91.4,123.4c-0.9,0-1.6,0.7-1.6,1.6c0,0.9,0.7,1.6,1.6,1.6c0.9,0,1.6-0.7,1.6-1.6
			C93,124.1,92.3,123.4,91.4,123.4z"/>
		<polygon class="st1" points="68.8,119.1 74.6,119.1 103.2,114.6 104.4,111.1 69.2,116.6 		"/>
		<polygon class="st3" points="120.1,128.6 120.1,129.1 120.1,129.5 127,129.5 127,129.1 127,128.6 		"/>
		<path class="st4" d="M103.8,55.1c-2.8-0.3-5.2-2.4-5.8-5.3l-1.5-7.7l0,0l-0.1-0.7c-0.3-1.4-1.6-2.2-2.9-2c-1.4,0.3-2.2,1.6-2,2.9
			c0.3,1.4,1.6,2.2,2.9,2l0,0l1.2,5.8l-0.4,0.1c-0.8,0.2-1.5,0.1-2.2-0.2l-1.4,9.1h11.6L103.8,55.1z"/>
		<path class="st9" d="M95.1,50.4l0.4-0.1l-1.2-5.8l0,0c-1.4,0.3-2.7-0.6-2.9-2c-0.3-1.4,0.6-2.7,2-2.9c1.4-0.3,2.7,0.6,2.9,2
			l0.1,0.7l0,0l1.5,7.7c0.6,2.9,3,5,5.8,5.3c0.7,0.1,1.4,0.1,2.1-0.1l6.5-1.3c1.9-0.4,3-2.2,2.6-4.1l-2-8l0,0l-10.7,2.2
			c-1.5,0.3-2.9-0.6-3.3-2.1l-2-9.8c1.5,1.1,3.5,1.6,5.5,1.2l7.5-1.5c0.4,0.7,0.8,1.5,1,2.4l0.5,2.1c2.5-1,4-3.6,3.4-6.3
			c-0.4-1.8-1.6-3.2-3.1-4c-0.6-2.1-2.4-3.5-4.4-3.7c-0.4-0.1-0.8,0-1.1,0l-0.2,0.1c0,0,0,0,0,0l-4,0.8l0,0l-0.4,0.1
			c-0.9,0.2-1.6,0.7-2.1,1.4c-0.8-0.6-1.8-0.9-2.8-0.7c-1.6,0.3-2.6,1.7-2.7,3.2c-4.2,1.1-6.9,5.4-6,9.7l1.2,6l0,0l0.9,4.5
			c0.3,1.5,1.4,2.6,2.7,3.1C93.6,50.4,94.4,50.5,95.1,50.4z M112.1,44.2c0.3,1.4-0.6,2.7-1.9,3c-1.4,0.3-2.7-0.6-3-1.9L112.1,44.2z"
			/>
		<path class="st4" d="M111,34c-0.2-0.9-0.6-1.7-1-2.4l-7.5,1.5c-2,0.4-4-0.1-5.5-1.2l2,9.8c0.3,1.5,1.8,2.4,3.3,2.1l10.7-2.2
			l-1.4-5.6L111,34z"/>
		<path class="st7" d="M110.2,47.2c1.4-0.3,2.2-1.6,1.9-3l-4.9,1C107.5,46.6,108.8,47.4,110.2,47.2z"/>
		<polygon class="st7" points="91,59.3 92,63.5 97.5,68.9 98.8,61.5 99.7,61.5 101.7,73 103.6,74.9 105.1,68.9 105.1,68.9 
			105.1,68.9 105.1,59.3 103.1,59.3 91.5,59.3 91,59.3 91,59.3 		"/>
		<polygon class="st9" points="99.7,61.5 98.8,61.5 97.5,68.9 101.7,73 		"/>
		<path class="st3" d="M109.5,99.5c0.1,0,1.8,1.2,4,1.2c0.1,0,0.2,0,0.2,0l0,0l9.1-1.1l-0.1-0.9l-3.5,0.4l-5.1,0.6v0l-0.5,0.1
			c-0.1,0-0.2,0-0.3,0c-0.1,0-0.3,0-0.4,0c-0.1,0-0.1,0-0.2,0c-0.1,0-0.1,0-0.2,0c-0.7-0.1-1.4-0.3-2-0.6c-0.4-0.2-0.6-0.3-0.6-0.3
			l-0.3-0.2c0,0,0,0,0,0l0,0L85.4,80.4l-0.5,0.7l23.7,17.7L109.5,99.5z"/>
		
			<rect x="126.3" y="98.1" transform="matrix(0.9932 -0.1162 0.1162 0.9932 -10.5967 15.471)" class="st3" width="2.2" height="0.9"/>
		<path class="st1" d="M142,89.6l-9.4-0.8l0.1-0.9l17.7,1.5v-4.4h-0.5v-4.7l-5.5-0.6l-6.2-0.7l-4.6-3.4l-0.4-0.3L113.9,61l0,0
			c-1.6-1.2-3.5-1.8-5.6-1.8v0h-3.2v9.7h0v0l-1.5,6l-1.9-1.9l-4.2-4.1L92,63.5L91,59.3h0l0,0h-0.6l-6-2l0,0
			c-3.5-1.2-7.6-0.2-10.1,2.9c-3.2,3.9-2.6,9.7,1.4,12.9c0,0,0,0,0,0c0.1,0.2,0.3,0.5,0.5,0.7L76,75.2l-0.3,2.1l-0.3,1.8l-2.4,14.8
			l-1.1,6.7l28.2-4.4v4.9L71,105.6l-0.3,1.6l12.9-2v1.9l-13.2,2.1l-0.4,2.2l36.1-5.6l2.4-7L84.9,81.1l0.5-0.7l24.2,18.1l0,0
			c0,0,0,0,0,0c0.3,0.2,0.6,0.4,0.9,0.6c0.6,0.3,1.3,0.5,2,0.6c0.1,0,0.1,0,0.2,0c0.1,0,0.1,0,0.2,0c0.4,0,0.7,0,1.1,0l0,0v0
			l5.1-0.6l12.2-1.4l2.1-0.2l7.8-0.9l3.7-0.4l-2.9,0.3L142,89.6z M90.7,106l-5.2,0.8v-1.9l5.2-0.8V106z M116.2,87.4l-0.2-0.2
			l-2.6-2.6l0.4-1l-0.4-0.1l2.5-7.3l0.9,0.3l-1.8,5.3l8.8,4.3l5.1,2.5L116.2,87.4z"/>
		<path class="st4" d="M155.3,90.7l-5-0.4l0,0l-5.3-0.4l0.1,6.2l3.2-0.4l5.3,2.1l0,0c0.3,0.1,0.7,0.2,1,0.2c2,0.2,3.8-1.3,4-3.3
			C158.8,92.7,157.3,90.9,155.3,90.7z"/>
		<polygon class="st7" points="145.1,89.8 142,89.6 142.1,96.4 145,96.1 145.2,96.1 		"/>
		<polygon class="st2" points="53.2,109.9 53.2,111.9 70.4,109.2 70.7,107.2 		"/>
		<polygon class="st0" points="83.6,107.1 83.6,105.2 70.7,107.2 70.4,109.2 		"/>
		<polygon class="st0" points="85.5,106.8 90.7,106 90.7,104.1 85.5,104.9 		"/>
		<polygon class="st2" points="53.2,103.5 53.2,108.4 71,105.6 71.8,100.7 		"/>
		<polygon class="st0" points="100,101.1 100,96.3 71.8,100.7 71,105.6 		"/>
		<polygon class="st0" points="104.4,111.1 106.2,105.8 106.2,105.8 70,111.4 69.2,116.6 		"/>
		<polygon class="st2" points="53.2,114.1 53.2,119.1 69.2,116.6 70,111.4 		"/>
		<polygon class="st2" points="104.4,111.1 129.6,107.2 129.6,102.2 106.2,105.8 		"/>
		<polygon class="st0" points="101.7,119.1 103.2,114.6 74.6,119.1 		"/>
		<polygon class="st2" points="129.6,119.1 129.6,110.5 103.2,114.6 101.7,119.1 		"/>
		<polygon class="st3" points="132.6,87.9 132.6,88.8 142,89.6 145.1,89.8 150.3,90.3 150.3,90.3 150.4,89.4 150.3,89.4 		"/>
		<polygon class="st3" points="114.9,81.7 116.6,76.5 115.8,76.2 113.3,83.4 113.7,83.6 114.2,83.7 		"/>
	</g>
	<g>
		<g>
			<rect x="52.8" y="40.2" class="st0" width="0.9" height="2.6"/>
			<rect x="52.8" y="55.6" class="st0" width="0.9" height="2.6"/>
		</g>
		<g>
			
				<rect x="48.9" y="41.2" transform="matrix(0.866 -0.5001 0.5001 0.866 -14.6424 30.3893)" class="st0" width="0.9" height="2.6"/>
			
				<rect x="56.6" y="54.6" transform="matrix(0.8661 -0.4999 0.4999 0.8661 -20.2698 36.008)" class="st0" width="0.9" height="2.6"/>
		</g>
		<g>
			<rect x="46.1" y="44" transform="matrix(0.5001 -0.866 0.866 0.5001 -15.9762 62.9793)" class="st0" width="0.9" height="2.6"/>
			<rect x="59.4" y="51.7" transform="matrix(0.5 -0.866 0.866 0.5 -15.9759 78.3625)" class="st0" width="0.9" height="2.6"/>
		</g>
		<g>
			<rect x="44.2" y="48.7" class="st0" width="2.6" height="0.9"/>
			<rect x="59.6" y="48.7" class="st0" width="2.6" height="0.9"/>
		</g>
		<g>
			
				<rect x="45.3" y="52.6" transform="matrix(0.8661 -0.4999 0.4999 0.8661 -20.2688 30.3765)" class="st0" width="2.6" height="0.9"/>
			
				<rect x="58.6" y="44.9" transform="matrix(0.8661 -0.4999 0.4999 0.8661 -14.6402 36.0055)" class="st0" width="2.6" height="0.9"/>
		</g>
		<g>
			
				<rect x="48.1" y="55.4" transform="matrix(0.4999 -0.8661 0.8661 0.4999 -23.6636 70.6833)" class="st0" width="2.6" height="0.9"/>
			
				<rect x="55.8" y="42.1" transform="matrix(0.4999 -0.8661 0.8661 0.4999 -8.2814 70.6827)" class="st0" width="2.6" height="0.9"/>
		</g>
	</g>
	<path class="st1" d="M35.4,133.4c-1.7,0-3.1-1.4-3.1-3.1c0-1.7,1.4-3.1,3.1-3.1c1.7,0,3.1,1.4,3.1,3.1
		C38.5,132,37.1,133.4,35.4,133.4z M35.4,128.1c-1.2,0-2.2,1-2.2,2.2c0,1.2,1,2.2,2.2,2.2c1.2,0,2.2-1,2.2-2.2
		C37.6,129.1,36.6,128.1,35.4,128.1z"/>
	<path class="st1" d="M20.7,119.8c-3.6,0-6.6-2.9-6.6-6.6c0-3.6,2.9-6.6,6.6-6.6s6.6,2.9,6.6,6.6C27.2,116.8,24.3,119.8,20.7,119.8z
		 M20.7,107.6c-3.1,0-5.7,2.5-5.7,5.7s2.5,5.7,5.7,5.7c3.1,0,5.7-2.5,5.7-5.7S23.8,107.6,20.7,107.6z"/>
</g>
</svg>
